<?xml version="1.0" encoding="UTF-8" standalone="no"?><!-- Generator: Gravit.io --><svg xmlns="http://www.w3.org/2000/svg" xmlns:xlink="http://www.w3.org/1999/xlink" style="isolation:isolate" viewBox="515 209 271 271" width="271pt" height="271pt"><path d=" M 515 344.5 C 514.99 326.39 518.61 308.46 525.66 291.78 C 532.48 275.68 542.34 261.06 554.7 248.7 C 567.06 236.34 581.68 226.48 597.77 219.66 C 614.46 212.61 632.39 208.99 650.5 209 C 668.61 208.99 686.54 212.61 703.23 219.66 C 719.32 226.48 733.94 236.34 746.3 248.7 C 758.66 261.06 768.52 275.68 775.34 291.77 C 782.39 308.46 786.01 326.39 786 344.5 C 786.01 362.61 782.39 380.54 775.34 397.23 C 768.52 413.32 758.66 427.94 746.3 440.3 C 733.94 452.66 719.32 462.52 703.23 469.34 C 686.54 476.39 668.61 480.01 650.5 480 C 632.39 480.01 614.46 476.39 597.77 469.34 C 581.68 462.52 567.06 452.66 554.7 440.3 C 542.34 427.94 532.48 413.32 525.66 397.23 C 518.61 380.54 514.99 362.61 515 344.5 Z  M 533 344.5 C 532.99 328.8 536.13 313.25 542.24 298.78 C 548.15 284.83 556.71 272.15 567.43 261.43 C 578.15 250.71 590.83 242.15 604.79 236.24 C 619.25 230.13 634.8 226.99 650.5 227 C 666.2 226.99 681.75 230.13 696.21 236.24 C 710.17 242.15 722.85 250.71 733.57 261.43 C 744.29 272.15 752.85 284.83 758.76 298.79 C 764.87 313.25 768.01 328.8 768 344.5 C 768.01 360.2 764.87 375.75 758.76 390.21 C 752.85 404.17 744.29 416.85 733.57 427.57 C 722.85 438.29 710.17 446.85 696.21 452.76 C 681.75 458.87 666.2 462.01 650.5 462 C 634.8 462.01 619.25 458.87 604.79 452.76 C 590.83 446.85 578.15 438.29 567.43 427.57 C 556.71 416.85 548.15 404.17 542.24 390.21 C 536.13 375.75 532.99 360.2 533 344.5 Z " fill-rule="evenodd" fill="rgb(61,122,139)"/><path d=" M 653.842 383.908 L 635.625 383.908 L 635.625 360.129 L 635.625 360.129 Q 645.213 351.691 652.979 343.254 L 652.979 343.254 L 652.979 343.254 Q 660.746 334.816 665.348 325.419 L 665.348 325.419 L 665.348 325.419 Q 669.951 316.023 669.951 304.9 L 669.951 304.9 L 669.951 304.9 Q 669.951 295.887 665.252 289.942 L 665.252 289.942 L 665.252 289.942 Q 660.554 283.998 651.541 283.998 L 651.541 283.998 L 651.541 283.998 Q 643.871 283.998 639.364 288.408 L 639.364 288.408 L 639.364 288.408 Q 634.857 292.819 634.857 299.722 L 634.857 299.722 L 634.857 299.722 Q 634.857 302.215 635.241 304.421 L 635.241 304.421 L 635.241 304.421 Q 635.625 306.626 636.2 309.311 L 636.2 309.311 L 617.023 312.954 L 617.023 312.954 Q 616.064 310.078 615.489 306.914 L 615.489 306.914 L 615.489 306.914 Q 614.914 303.75 614.914 300.873 L 614.914 300.873 L 614.914 300.873 Q 614.914 285.532 624.502 275.848 L 624.502 275.848 L 624.502 275.848 Q 634.09 266.163 651.541 266.163 L 651.541 266.163 L 651.541 266.163 Q 669.759 266.163 679.923 276.423 L 679.923 276.423 L 679.923 276.423 Q 690.086 286.682 690.086 305.475 L 690.086 305.475 L 690.086 305.475 Q 690.086 318.324 685.292 328.679 L 685.292 328.679 L 685.292 328.679 Q 680.498 339.035 672.252 347.856 L 672.252 347.856 L 672.252 347.856 Q 664.006 356.677 653.842 365.307 L 653.842 365.307 L 653.842 383.908 Z  M 655.185 422.837 L 634.666 422.837 L 634.666 401.742 L 655.185 401.742 L 655.185 422.837 Z " fill="rgb(61,122,139)"/></svg>